<svg width="40" height="40" viewBox="0 0 40 40" fill="none" xmlns="http://www.w3.org/2000/svg">
<g clip-path="url(#clip0_108_8939)">
<path d="M0.99854 9.77509L1.01003 9.78275L1.02262 9.78841L17.1191 17.0288C15.3394 19.0407 13.8895 20.7244 12.7175 22.185L6.14528 21.2291L6.13335 21.2273H6.12129C5.90042 21.2273 5.68698 21.3014 5.48339 21.4371L5.46966 21.4463L5.45799 21.458L3.03375 23.8822C2.8742 24.0417 2.80311 24.27 2.80311 24.4849C2.80311 24.7293 2.95975 24.9721 3.20395 25.0616L8.5635 28.0653C7.89406 29.3245 7.69616 30.1344 7.71993 30.689C7.74336 31.2358 7.98318 31.5174 8.13846 31.6998C8.1513 31.7149 8.16356 31.7293 8.17507 31.7431L8.17991 31.7489L8.18526 31.7543L8.18856 31.7576C8.27909 31.8481 8.40015 31.9692 8.58184 32.0644C8.76763 32.1617 9.00685 32.2273 9.33341 32.2273C9.89948 32.2273 10.6783 31.9872 11.8723 31.3742L14.8846 36.8081L14.8841 36.8084L14.8917 36.8198C15.0165 37.0069 15.1813 37.197 15.4546 37.197H15.5152C15.6256 37.197 15.725 37.1784 15.8178 37.1372C15.9098 37.0963 15.9869 37.0368 16.0573 36.9664L18.4816 34.5421C18.6451 34.3787 18.7122 34.147 18.7122 33.8788V33.8668L18.7105 33.8548L17.7545 27.2826C19.2147 26.1125 20.9517 24.6639 22.912 22.884L30.1479 38.9705C30.2354 39.2199 30.4743 39.3641 30.6747 39.4309L30.7003 39.4394H30.7274H30.8486C30.9589 39.4394 31.0583 39.4209 31.1511 39.3796C31.2431 39.3387 31.3202 39.2793 31.3907 39.2088L33.8149 36.7846C33.9744 36.625 34.0455 36.3968 34.0455 36.1819H34.0459L34.0452 36.1716L32.6559 13.7617C33.9127 12.5049 35.228 11.1905 36.6609 9.81735L36.6609 9.81738L36.6634 9.81487C38.2959 8.18233 39.0839 6.31601 39.3315 4.7149C39.4552 3.91477 39.4443 3.17827 39.3346 2.5681C39.2256 1.96208 39.0161 1.46408 38.7273 1.15834L38.7276 1.15804L38.7188 1.14992C38.5035 0.952581 38.0775 0.770633 37.5292 0.656929C36.973 0.541591 36.2681 0.491614 35.4747 0.576757C33.8859 0.747264 31.9409 1.45992 30.1247 3.27614L30.1246 3.27611L30.1222 3.27867C28.749 4.71154 27.4346 6.0268 26.1778 7.2836L3.76797 5.89431L3.76799 5.89399H3.75766C3.54276 5.89399 3.3145 5.96508 3.15496 6.12462L0.730715 8.54886C0.643354 8.63623 0.587338 8.7558 0.552906 8.8677C0.517754 8.98194 0.500081 9.10452 0.500081 9.21217V9.23922L0.508634 9.26487C0.551453 9.39333 0.634445 9.49217 0.721921 9.5709C0.806729 9.64723 0.906136 9.71349 0.993651 9.77183L0.99854 9.77509ZM35.5792 8.79129L35.5792 8.79126L35.5767 8.79382C34.883 9.51775 28.8405 15.5149 22.6839 21.0657C19.6054 23.8413 16.5022 26.5017 14.0268 28.3349C12.7881 29.2522 11.7132 29.9574 10.8807 30.367C10.4636 30.5722 10.1169 30.6983 9.84645 30.7434C9.59878 30.7846 9.44489 30.7536 9.35279 30.6878C9.34824 30.6725 9.34202 30.6455 9.3392 30.6032C9.33285 30.508 9.34352 30.3329 9.4324 30.0377C9.61074 29.4453 10.0959 28.3956 11.3346 26.5866C13.8106 22.9708 19.2715 16.3583 31.2089 4.36031C32.6977 2.87144 34.2251 2.28113 35.4259 2.10433C36.0273 2.01578 36.5468 2.03096 36.9387 2.08915C37.1347 2.11826 37.2969 2.15786 37.4203 2.19959C37.531 2.23706 37.6002 2.27284 37.6353 2.29772C37.6638 2.3415 37.7012 2.41997 37.7393 2.53726C37.7814 2.66717 37.8211 2.83492 37.8503 3.0354C37.9086 3.43621 37.9237 3.96166 37.8352 4.56682C37.6583 5.77512 37.068 7.30246 35.5792 8.79129ZM24.7206 8.74976C22.2274 11.3624 20.016 13.7479 18.1405 15.7984L2.652 8.79596L4.00411 7.44385L24.7206 8.74976ZM9.33735 26.7466L4.81877 24.2049L6.24039 22.7833L11.5721 23.5774C10.6163 24.8126 9.90086 25.8543 9.33735 26.7466ZM17.1562 33.6991L15.7346 35.1208L13.1929 30.6022C14.0852 30.0387 15.1269 29.3232 16.3621 28.3674L17.1562 33.6991ZM31.2505 15.2215L32.5563 35.9354L31.2042 37.2875L24.2017 21.7991C24.431 21.5896 24.6645 21.3765 24.9021 21.1596C26.7734 19.4518 28.9025 17.5088 31.2505 15.2215Z" fill="#009DDB" stroke="#009DDB" stroke-width="0.333333"/>
</g>
<defs>
<clipPath id="clip0_108_8939">
<rect width="40" height="40" fill="white"/>
</clipPath>
</defs>
</svg>
