<svg width="40" height="40" viewBox="0 0 40 40" fill="none" xmlns="http://www.w3.org/2000/svg">
<g clip-path="url(#clip0_108_8960)">
<path d="M36.4112 19.6791C36.9448 19.6245 37.3334 19.1485 37.2789 18.6158C36.4481 10.4092 30.1043 4.07026 22.1329 3.06586L22.3443 2.24169C22.4652 1.7652 22.3597 1.25224 22.0613 0.869379C21.7769 0.503225 21.354 0.294434 20.8995 0.294434H18.9439C18.4767 0.294434 18.045 0.514214 17.7606 0.897511C17.463 1.29883 17.3729 1.8263 17.5184 2.3085L17.7448 3.06015C9.71973 4.05092 3.35401 10.432 2.55533 18.6936C2.5039 19.2272 2.89423 19.7015 3.42786 19.7542C3.45951 19.7569 3.49116 19.7577 3.5228 19.7577C4.01731 19.7577 4.43929 19.3828 4.48808 18.8804C5.26083 10.883 11.896 4.85136 19.9206 4.85136C27.9087 4.85136 34.5399 10.8522 35.347 18.81C35.4015 19.3441 35.8788 19.7314 36.4112 19.6791ZM19.5246 2.23509H20.3408L20.1654 2.92169C20.0832 2.92081 20.0032 2.91026 19.9206 2.91026C19.856 2.91026 19.794 2.91817 19.7298 2.91905L19.5246 2.23509Z" fill="#009DDB"/>
<path d="M38.9091 20.8044H37.1575H2.68405H1.18295C0.647567 20.8044 0.212402 21.2396 0.212402 21.7754C0.212402 22.3113 0.647567 22.7464 1.18295 22.7464H1.85636C2.28713 24.3504 3.74031 25.5407 5.47966 25.5407H9.17768C10.386 27.0128 13.983 31.3715 13.983 31.3715C14.0076 31.4 14.0335 31.4282 14.0616 31.4554L19.7654 36.8972L20.3399 37.3961L19.5619 37.9363C19.1223 38.2427 19.0128 38.8488 19.3192 39.2875C19.5082 39.5596 19.8106 39.7055 20.1166 39.7055C20.3091 39.7055 20.5021 39.6484 20.6709 39.531L28.1724 34.2836L30.8449 36.7935C31.0326 36.9702 31.2717 37.0572 31.5104 37.0572C31.7684 37.0572 32.0269 36.9548 32.2177 36.7517C32.5847 36.36 32.5654 35.7455 32.1755 35.3794L28.8419 32.2471C28.5372 31.9618 28.1008 31.9214 27.7456 32.0994C27.6032 31.6357 27.5856 31.1433 27.7113 30.6647C27.9139 29.8963 28.3012 29.1772 28.83 28.5873L31.0467 26.1196C31.1922 25.9583 31.2757 25.7535 31.2911 25.5411H34.3636C36.1021 25.5411 37.5544 24.3508 37.9852 22.7469H38.9091C39.4458 22.7469 39.8801 22.3117 39.8801 21.7759C39.8801 21.24 39.4454 20.8044 38.9091 20.8044ZM27.3856 27.2906C26.6515 28.1086 26.1139 29.1033 25.8335 30.1702C25.5513 31.2449 25.6665 32.3636 26.1544 33.3521L21.9843 36.2532L21.0731 35.4629L15.4441 30.0902C15.1469 29.7315 13.1166 27.2695 11.6933 25.5407H13.1438C13.1438 25.5407 16.4282 28.3447 16.4528 28.3622C17.5495 29.1359 20.0665 29.8242 21.2792 29.8242C22.997 29.8242 24.6568 29.0998 25.8331 27.837C26.2269 27.4146 26.59 27.0405 26.8722 26.7526C27.3482 26.2669 27.87 25.913 28.4216 25.6994C28.6317 25.6194 28.8045 25.5746 28.9434 25.5535L27.3856 27.2906ZM24.4146 26.5121C23.6032 27.3833 22.4603 27.8827 21.2792 27.8827C20.3544 27.8827 18.3249 27.2805 17.6036 26.7974L16.1328 25.5407H25.3412C25.0748 25.8159 24.7619 26.1398 24.4146 26.5121ZM34.3636 23.5996H29.1333C29.1192 23.5996 29.1047 23.5996 29.0893 23.5996H5.47966C4.83086 23.5996 4.25944 23.2585 3.93636 22.7464H35.9052C35.5821 23.2585 35.0124 23.5996 34.3636 23.5996Z" fill="#009DDB"/>
<path d="M31.4389 16.2845C31.951 16.1258 32.2367 15.5812 32.0771 15.0695C30.267 9.25723 25.1378 7.58119 24.9202 7.51173C24.4116 7.35393 23.867 7.63393 23.7048 8.14382C23.5426 8.65283 23.824 9.19921 24.3334 9.36316C24.5119 9.42119 28.7233 10.8304 30.2226 15.6458C30.3527 16.0621 30.7356 16.3289 31.1497 16.3289C31.2459 16.3293 31.3435 16.3144 31.4389 16.2845Z" fill="#009DDB"/>
</g>
<defs>
<clipPath id="clip0_108_8960">
<rect width="40" height="40" fill="white"/>
</clipPath>
</defs>
</svg>
