<svg width="41" height="40" viewBox="0 0 41 40" fill="none" xmlns="http://www.w3.org/2000/svg">
<path d="M35.0851 2.6665H5.91446C4.3992 2.6665 3.1665 3.90197 3.1665 5.42062V34.5984C3.1665 36.117 4.3992 37.3525 5.91446 37.3525H23.0636C23.064 37.3525 23.0644 37.3525 23.0648 37.3525C23.0654 37.3525 23.0659 37.3525 23.0665 37.3525H35.0852C36.6005 37.3525 37.8332 36.117 37.8332 34.5984V5.42062C37.8331 3.90197 36.6004 2.6665 35.0851 2.6665ZM5.91446 4.70295H35.0851C35.4799 4.70295 35.8012 5.02487 35.8012 5.42062V24.8776L26.2119 14.6739C25.8585 14.2516 25.3438 14.0068 24.7918 14.0003C24.2373 13.9936 23.7142 14.229 23.3507 14.647L14.474 23.9162L11.6751 20.4019C11.3176 19.9531 10.7844 19.6959 10.2115 19.6959H10.2079C9.63373 19.6969 9.09988 19.9563 8.74335 20.4074L5.19841 24.8925V5.42062C5.19841 5.02487 5.51966 4.70295 5.91446 4.70295ZM5.19841 34.5984V28.1722L10.2119 21.8291L13.5259 25.9902C13.5714 26.0662 13.6264 26.1378 13.6931 26.202C13.6946 26.2035 13.6963 26.2047 13.6978 26.2061L20.9532 35.3161H5.91446C5.51966 35.3161 5.19841 34.9941 5.19841 34.5984ZM35.0851 35.3161H23.5531L15.7528 25.5218L24.7681 16.1079L35.8012 27.8478V34.5984C35.8012 34.9941 35.4799 35.3161 35.0851 35.3161Z" fill="#009DDB"/>
<path d="M14.1034 15.64C16.3691 15.64 18.2124 13.7926 18.2124 11.5218C18.2124 9.25104 16.3691 7.40356 14.1034 7.40356C11.8377 7.40356 9.99438 9.25104 9.99438 11.5218C9.99438 13.7926 11.8377 15.64 14.1034 15.64ZM14.1034 9.44001C15.2487 9.44001 16.1805 10.3739 16.1805 11.5218C16.1805 12.6697 15.2487 13.6036 14.1034 13.6036C12.9581 13.6036 12.0263 12.6697 12.0263 11.5218C12.0263 10.3739 12.9581 9.44001 14.1034 9.44001Z" fill="#009DDB"/>
</svg>
