<svg width="40" height="40" viewBox="0 0 40 40" fill="none" xmlns="http://www.w3.org/2000/svg">
<g clip-path="url(#clip0_108_8945)">
<path d="M12.5 25.8333C11.9687 25.8333 11.5625 26.2396 11.5625 26.7708V28.3333C11.5625 28.8646 11.9687 29.2708 12.5 29.2708C13.0312 29.2708 13.4375 28.8646 13.4375 28.3333V26.7708C13.4375 26.2396 13.0312 25.8333 12.5 25.8333ZM27.5 29.2708C28.0312 29.2708 28.4375 28.8646 28.4375 28.3333V26.7708C28.4375 26.2396 28.0312 25.8333 27.5 25.8333C26.9688 25.8333 26.5625 26.2396 26.5625 26.7708V28.3333C26.5625 28.8646 26.9688 29.2708 27.5 29.2708ZM12.5 19.0625C11.9687 19.0625 11.5625 19.4688 11.5625 20V21.5625C11.5625 22.0938 11.9687 22.5 12.5 22.5C13.0312 22.5 13.4375 22.0938 13.4375 21.5625V20C13.4375 19.4688 13.0312 19.0625 12.5 19.0625ZM27.5 22.5C28.0312 22.5 28.4375 22.0938 28.4375 21.5625V20C28.4375 19.4688 28.0312 19.0625 27.5 19.0625C26.9688 19.0625 26.5625 19.4688 26.5625 20V21.5625C26.5625 22.0938 26.9688 22.5 27.5 22.5ZM12.5 12.1875C11.9687 12.1875 11.5625 12.5937 11.5625 13.125V14.6875C11.5625 15.2188 11.9687 15.625 12.5 15.625C13.0312 15.625 13.4375 15.2188 13.4375 14.6875V13.125C13.4375 12.5937 13.0312 12.1875 12.5 12.1875ZM27.5 15.625C28.0312 15.625 28.4375 15.2188 28.4375 14.6875V13.125C28.4375 12.5937 28.0312 12.1875 27.5 12.1875C26.9688 12.1875 26.5625 12.5937 26.5625 13.125V14.6875C26.5625 15.2188 26.9688 15.625 27.5 15.625Z" fill="#009DDB"/>
<path d="M20.9375 14.6875C20.9375 15.2188 20.5312 15.625 20 15.625C19.4687 15.625 19.0625 15.2188 19.0625 14.6875V13.125C19.0625 12.5937 19.4687 12.1875 20 12.1875C20.5312 12.1875 20.9375 12.5937 20.9375 13.125V14.6875Z" fill="#009DDB"/>
<path d="M20.9375 21.6667C20.9375 22.198 20.5312 22.6042 20 22.6042C19.4687 22.6042 19.0625 22.198 19.0625 21.6667V20.1042C19.0625 19.573 19.4687 19.1667 20 19.1667C20.5312 19.1667 20.9375 19.573 20.9375 20.1042V21.6667Z" fill="#009DDB"/>
<path d="M1.25 39.6875H17.5C18.0312 39.6875 18.4375 39.2812 18.4375 38.75V31.875H21.5625V38.75C21.5625 39.2812 21.9688 39.6875 22.5 39.6875H38.75C39.2812 39.6875 39.6875 39.2812 39.6875 38.75C39.6875 38.2188 39.2812 37.8125 38.75 37.8125H37.5V10C37.5 9.46875 37.0938 9.0625 36.5625 9.0625H33.125V5.625C33.125 5.09375 32.7188 4.6875 32.1875 4.6875H28.4375V1.25C28.4375 0.71875 28.0312 0.3125 27.5 0.3125H12.5C11.9688 0.3125 11.5625 0.71875 11.5625 1.25V4.6875H7.8125C7.28125 4.6875 6.875 5.09375 6.875 5.625V9.0625H3.4375C2.90625 9.0625 2.5 9.46875 2.5 10V37.8125H1.25C0.71875 37.8125 0.3125 38.2188 0.3125 38.75C0.3125 39.2812 0.71875 39.6875 1.25 39.6875ZM33.125 10.9375H35.625V37.8125H33.125V10.9375ZM13.4375 2.1875H26.5625V4.6875H13.4375V2.1875ZM8.75 6.5625H31.25V37.8125H23.4375V30.9375C23.4375 30.4062 23.0312 30 22.5 30H17.5C16.9688 30 16.5625 30.4062 16.5625 30.9375V37.8125H8.75V6.5625ZM4.375 10.9375H6.875V37.8125H4.375V10.9375Z" fill="#009DDB"/>
</g>
<defs>
<clipPath id="clip0_108_8945">
<rect width="40" height="40" fill="white"/>
</clipPath>
</defs>
</svg>
