<svg width="41" height="40" viewBox="0 0 41 40" fill="none" xmlns="http://www.w3.org/2000/svg">
<g clip-path="url(#clip0_108_9014)">
<path fill-rule="evenodd" clip-rule="evenodd" d="M39.4967 34.4578H1.50327C0.165577 34.4578 0.165577 32.4513 1.50327 32.4513H1.43787L4.36408 27.1841L12.223 10.7137C12.5574 10.1285 13.3099 9.96129 13.8115 10.4629L16.3197 12.6367L19.3295 6.53345C19.7475 5.78099 20.7508 5.8646 21.1688 6.53345L27.5229 18.5727C27.9409 18.0711 28.6934 18.1547 29.1114 18.6563L39.3949 32.4513C39.3949 32.4513 38.159 32.4513 39.4967 32.4513C40.8344 32.4513 40.8344 34.4578 39.4967 34.4578ZM3.77884 32.4513H9.79845C9.96566 32.3677 14.2296 28.6054 14.6476 28.4382L22.7574 25.3448L26.2688 20.412L23.7606 15.8137C22.1721 16.9006 20.5836 16.3989 19.4131 14.6432C18.9951 14.1416 18.6607 13.6399 18.3262 13.1383L13.2263 23.5054C13.1427 23.6726 12.9755 23.8399 12.8083 23.9235L6.03619 28.271L3.77884 32.4513ZM7.70831 24.8431L11.5542 22.3349L15.4 14.5596L13.4771 12.8039L7.70831 24.8431ZM22.841 13.9744L20.2492 9.20883L19.3295 11.1318C19.8312 11.8006 20.4164 12.6367 21.0852 13.5563C21.6705 14.476 22.0885 14.6432 22.841 13.9744ZM12.8919 32.4513H36.8867L28.3589 20.9136L24.1787 26.7661C24.095 26.9333 23.9278 27.1005 23.7606 27.1841L15.5673 30.1939L12.8919 32.4513Z" fill="#009DDB"/>
</g>
<defs>
<clipPath id="clip0_108_9014">
<rect width="40" height="40" fill="white" transform="translate(0.5)"/>
</clipPath>
</defs>
</svg>
