<svg width="41" height="40" viewBox="0 0 41 40" fill="none" xmlns="http://www.w3.org/2000/svg">
<g clip-path="url(#clip0_108_8954)">
<path d="M36.3333 36.6668H35.0833L34.4999 33.3335H35.4999C35.9999 33.3335 36.3333 33.0002 36.3333 32.5002C36.3333 32.0002 35.9999 31.6668 35.4999 31.6668H34.1666L33.5833 28.3335H34.6666C35.1666 28.3335 35.4999 28.0002 35.4999 27.5002C35.4999 27.0002 35.1666 26.6668 34.6666 26.6668H33.3333L32.7499 23.3335H33.8333C34.3333 23.3335 34.6666 23.0002 34.6666 22.5002C34.6666 22.0002 34.3333 21.6668 33.8333 21.6668H32.4999L31.9166 18.3335H32.9999C33.4999 18.3335 33.8333 18.0002 33.8333 17.5002C33.8333 17.0002 33.4999 16.6668 32.9999 16.6668H31.5833L30.9999 13.3335H32.1666C32.6666 13.3335 32.9999 13.0002 32.9999 12.5002C32.9999 12.0002 32.6666 11.6668 32.1666 11.6668H30.7499L30.1666 8.33349H30.4999C30.9999 8.33349 31.3333 8.00016 31.3333 7.50016C31.3333 7.00016 30.9999 6.66683 30.4999 6.66683H29.8333L29.2499 3.33349H29.6666C30.1666 3.33349 30.4999 3.00016 30.4999 2.50016C30.4999 2.00016 30.1666 1.66683 29.6666 1.66683H28.9999L28.8333 0.666826C28.7499 0.25016 28.3333 -0.0831735 27.8333 0.000159787C27.4166 0.0834931 27.0833 0.50016 27.1666 1.00016L27.3333 1.66683H13.6666L13.8333 1.00016C13.9166 0.583493 13.5833 0.0834931 13.1666 0.000159787C12.7499 -0.0831735 12.2499 0.25016 12.1666 0.666826L11.9999 1.66683H11.3333C10.8333 1.66683 10.4999 2.00016 10.4999 2.50016C10.4999 3.00016 10.8333 3.33349 11.3333 3.33349H11.7499L11.1666 6.66683H10.4999C9.99992 6.66683 9.66658 7.00016 9.66658 7.50016C9.66658 8.00016 9.99992 8.33349 10.4999 8.33349H10.8333L10.2499 11.6668H8.83325C8.33325 11.6668 7.99992 12.0002 7.99992 12.5002C7.99992 13.0002 8.33325 13.3335 8.83325 13.3335H9.99992L9.41658 16.6668H7.99992C7.49992 16.6668 7.16659 17.0002 7.16659 17.5002C7.16659 18.0002 7.49992 18.3335 7.99992 18.3335H9.08325L8.49992 21.6668H7.16659C6.66659 21.6668 6.33325 22.0002 6.33325 22.5002C6.33325 23.0002 6.66659 23.3335 7.16659 23.3335H8.24992L7.66659 26.6668H6.33325C5.83325 26.6668 5.49992 27.0002 5.49992 27.5002C5.49992 28.0002 5.83325 28.3335 6.33325 28.3335H7.33325L6.74992 31.6668H5.49992C4.99992 31.6668 4.66659 32.0002 4.66659 32.5002C4.66659 33.0002 4.99992 33.3335 5.49992 33.3335H6.49992L5.91659 36.6668H4.66659C4.16659 36.6668 3.83325 37.0002 3.83325 37.5002C3.83325 38.0002 4.16659 38.3335 4.66659 38.3335H5.66659L5.49992 39.0002C5.41659 39.4168 5.74992 39.9168 6.16659 40.0002C6.66659 40.0835 7.08325 39.7502 7.16659 39.3335L7.33325 38.3335H33.6666L33.8333 39.3335C33.9166 39.7502 34.3333 40.0835 34.8333 40.0002C35.2499 39.9168 35.5833 39.5002 35.4999 39.0002L35.3333 38.3335H36.3333C36.8333 38.3335 37.1666 38.0002 37.1666 37.5002C37.1666 37.0002 36.8333 36.6668 36.3333 36.6668ZM13.4166 3.33349H27.5833L28.1666 6.66683H12.8333L13.4166 3.33349ZM12.4999 8.33349H28.4166L28.9999 11.6668H11.9999L12.4999 8.33349ZM11.6666 13.3335H29.3333L29.9166 16.6668H11.0833L11.6666 13.3335ZM10.8333 18.3335H30.2499L30.8333 21.6668H10.2499L10.8333 18.3335ZM9.91659 23.3335H31.0833L31.6666 26.6668H9.33325L9.91659 23.3335ZM9.08325 28.3335H31.9166L32.4999 31.6668H8.49992L9.08325 28.3335ZM7.58325 36.6668L8.16658 33.3335H32.7499L33.3333 36.6668H7.58325Z" fill="#009DDB"/>
</g>
<defs>
<clipPath id="clip0_108_8954">
<rect width="40" height="40" fill="white" transform="translate(0.5)"/>
</clipPath>
</defs>
</svg>
