<svg width="40" height="40" viewBox="0 0 40 40" fill="none" xmlns="http://www.w3.org/2000/svg">
<g clip-path="url(#clip0_108_8995)">
<path d="M22.6003 25.3352V25.3353C22.6003 29.054 25.6149 32.0686 29.3336 32.0686C33.0521 32.0686 36.0667 29.054 36.0667 25.3353C36.0667 21.6169 33.0521 18.6023 29.3336 18.6023L29.3336 18.6023C25.6165 18.6064 22.6044 21.6185 22.6003 25.3352ZM29.3336 20.0688C32.2423 20.0688 34.6002 22.4266 34.6002 25.3353C34.6002 28.244 32.2423 30.6019 29.3336 30.6019C26.425 30.6019 24.0671 28.244 24.0671 25.3353C24.0703 22.4283 26.4263 20.072 29.3336 20.0688Z" fill="#009DDB" stroke="#009DDB" stroke-width="0.133333"/>
<path d="M25.5242 38.6023H25.4575V38.6689V40.0021V40.0688H25.5242H33.1434H33.2101V40.0021V38.6689V38.6023H33.1434H25.5242Z" fill="#009DDB" stroke="#009DDB" stroke-width="0.133333"/>
<path d="M22.667 35.9353H22.6003V36.002V37.3354V37.4021H22.667H36.0003H36.0669V37.3354V36.002V35.9353H36.0003H22.667Z" fill="#009DDB" stroke="#009DDB" stroke-width="0.133333"/>
<path d="M8.00049 35.9353H7.93382V36.002V37.3354V37.4021H8.00049H9.33392H9.40059V37.3354V36.002V35.9353H9.33392H8.00049Z" fill="#009DDB" stroke="#009DDB" stroke-width="0.133333"/>
<path d="M4.00073 37.2688H3.93407V37.3354V38.6689V38.7356H4.00073H5.3339H5.40057V38.6689V37.3354V37.2688H5.3339H4.00073Z" fill="#009DDB" stroke="#009DDB" stroke-width="0.133333"/>
<path d="M12.6649 3.1047C12.8292 2.89291 13.0061 2.69137 13.1952 2.50106L13.1954 2.50091L13.8319 1.86436C15.8354 -0.142967 18.8997 -0.639907 21.4349 0.631107M12.6649 3.1047L19.1168 5.106V5.03933H19.1168H18.4106L21.6268 1.80439M12.6649 3.1047C12.5023 2.89294 12.3267 2.69146 12.1392 2.50124L12.1388 2.50091L11.5023 1.86436C9.50039 -0.141611 6.43779 -0.638556 3.90418 0.631083C3.54183 0.812133 3.39478 1.25262 3.57585 1.61476L3.63548 1.58495M12.6649 3.1047L11.4551 1.91145C9.4735 -0.0741806 6.44194 -0.566084 3.93401 0.690703C3.60455 0.855298 3.47089 1.25576 3.63548 1.58495M21.4349 0.631107L21.405 0.690703L21.4348 0.631024C21.4348 0.631052 21.4349 0.631079 21.4349 0.631107ZM21.4349 0.631107C21.5051 0.666082 21.569 0.712239 21.6245 0.767422L21.6245 0.76745C21.9114 1.05319 21.9126 1.51735 21.6269 1.80435M21.6269 1.80435L21.5796 1.75734L21.6268 1.80439M21.6269 1.80435L21.6268 1.80439M21.6269 1.80435L21.6268 1.80439M3.63548 1.58495C3.66722 1.64869 3.70917 1.70678 3.75947 1.75734L7.02616 5.03933H6.9321M3.63548 1.58495L3.5758 1.61466C3.61079 1.68493 3.65698 1.74884 3.7122 1.80436L3.71222 1.80437L6.9321 5.03933M6.9321 5.03933H6.21743M6.9321 5.03933H6.21743M6.21743 5.03933C3.38278 5.03661 0.865466 6.85049 -0.0287038 9.54033C-0.157027 9.92432 0.0503466 10.3396 0.434497 10.468M6.21743 5.03933L0.434497 10.468M0.434497 10.468C0.509475 10.4932 0.588191 10.5059 0.66739 10.5059H5.19101M0.434497 10.468L5.19101 10.5059M5.19101 10.5059L4.75965 10.9374M5.19101 10.5059L4.75965 10.9374M4.75965 10.9374C2.75341 12.9396 2.2562 16.0022 3.52558 18.5364" fill="#009DDB" stroke="#009DDB" stroke-width="0.133333"/>
</g>
<defs>
<clipPath id="clip0_108_8995">
<rect width="40" height="40" fill="white"/>
</clipPath>
</defs>
</svg>
