<svg width="41" height="40" viewBox="0 0 41 40" fill="none" xmlns="http://www.w3.org/2000/svg">
<path d="M28.6817 11.8182H25.9545V0.909091C25.9545 0.407273 25.5472 0 25.0454 0H15.9545C15.4526 0 15.0454 0.407273 15.0454 0.909091V11.8182H12.3181C10.8145 11.8182 9.59082 13.0418 9.59082 14.5455V34.5455C9.59082 36.0491 10.8145 37.2727 12.3181 37.2727V39.0909C12.3181 39.5927 12.7254 40 13.2272 40H15.9545C16.299 40 16.6135 39.8055 16.7681 39.4973C17.1735 38.6855 17.989 38.1818 18.8963 38.1818H22.1026C23.0099 38.1818 23.8263 38.6864 24.2317 39.4982C24.3863 39.8055 24.7008 40 25.0454 40H27.7726C28.2745 40 28.6817 39.5927 28.6817 39.0909V37.2727C30.1854 37.2727 31.409 36.0491 31.409 34.5455V14.5455C31.409 13.0418 30.1854 11.8182 28.6817 11.8182ZM16.8635 2.72727H24.1363V11.8182H16.8635V2.72727ZM15.4372 38.1818H14.1363V37.2727H16.2808C15.9599 37.5291 15.6745 37.8345 15.4372 38.1818ZM26.8635 38.1818H25.5626C25.3245 37.8345 25.0399 37.5291 24.7181 37.2727H26.8635V38.1818ZM29.5908 34.5455C29.5908 35.0464 29.1826 35.4545 28.6817 35.4545H27.7726H13.2272H12.3181C11.8172 35.4545 11.409 35.0464 11.409 34.5455V14.5455C11.409 14.0445 11.8172 13.6364 12.3181 13.6364H15.9545H25.0454H28.6817C29.1826 13.6364 29.5908 14.0445 29.5908 14.5455V34.5455Z" fill="#009DDB"/>
<path d="M26.8637 19.0911H14.1364C13.6346 19.0911 13.2273 19.4983 13.2273 20.0002C13.2273 20.502 13.6346 20.9092 14.1364 20.9092H24.1364V21.8183C24.1364 22.3202 24.5437 22.7274 25.0455 22.7274C25.5473 22.7274 25.9546 22.3202 25.9546 21.8183V20.9092H26.8637C27.3655 20.9092 27.7727 20.502 27.7727 20.0002C27.7727 19.4983 27.3655 19.0911 26.8637 19.0911Z" fill="#009DDB"/>
</svg>
