<svg width="40" height="40" viewBox="0 0 40 40" fill="none" xmlns="http://www.w3.org/2000/svg">
<g clip-path="url(#clip0_108_9020)">
<path d="M16.4541 5.204H23.5462C23.9884 5.204 24.3462 4.8458 24.3462 4.404C24.3462 3.9622 23.9884 3.604 23.5462 3.604H16.4541C16.0119 3.604 15.6541 3.9622 15.6541 4.404C15.6541 4.8458 16.0119 5.204 16.4541 5.204Z" fill="#009DDB"/>
<path d="M1.59924 39.2C1.83362 39.2 2.06487 39.0981 2.22268 38.902L3.94026 36.7708H36.06L37.7774 38.902C38.0532 39.2454 38.5571 39.3008 38.9016 39.0231C39.2461 38.7458 39.3 38.2422 39.0227 37.8981L30.9582 27.8895C32.5758 27.3765 33.7594 25.8786 33.7594 24.0934C33.7594 11.1308 33.7594 13.7659 33.7594 4.80005C33.7594 2.59458 31.9649 0.800049 29.7594 0.800049H10.2414C8.03596 0.800049 6.24144 2.59458 6.24144 4.80005C6.24144 14.9912 6.24144 14.1677 6.24144 24.0934C6.24144 25.8786 7.42503 27.3764 9.04261 27.8895L0.977371 37.8981C0.700027 38.2422 0.753931 38.7458 1.09768 39.0231C1.24612 39.1422 1.42347 39.2 1.59924 39.2ZM5.22952 35.1707L8.05979 31.6586H31.9408L34.7707 35.1707H5.22952ZM9.34924 30.0586L10.9328 28.0934H29.068L30.6516 30.0586H9.34924ZM8.64143 17.6879C8.20003 17.6879 7.84143 17.329 7.84143 16.8879V9.23989C7.84143 8.79887 8.20003 8.43989 8.64143 8.43989H19.2V17.6879H8.64143ZM20.8 8.43989H31.3594C31.8008 8.43989 32.1594 8.79887 32.1594 9.23989V16.8879C32.1594 17.329 31.8008 17.6879 31.3594 17.6879H20.8V8.43989ZM10.2414 2.40005H29.7594C31.0828 2.40005 32.1594 3.47661 32.1594 4.80005V6.98735C31.9078 6.8977 31.6412 6.83989 31.3594 6.83989H8.64143C8.3596 6.83989 8.09299 6.8977 7.84143 6.98735V4.80005C7.84143 3.47661 8.91799 2.40005 10.2414 2.40005ZM7.84143 24.0934V19.1405C8.63424 19.423 7.51559 19.2287 31.3594 19.2879C31.6412 19.2879 31.9078 19.2301 32.1594 19.1405V24.0934C32.1594 25.4168 31.0828 26.4934 29.7594 26.4934H29.4508H10.55H10.2414C8.91799 26.4934 7.84143 25.4168 7.84143 24.0934Z" fill="#009DDB"/>
<path d="M13.0001 25.3774C14.3235 25.3774 15.4001 24.3008 15.4001 22.9774C15.4001 21.654 14.3235 20.5774 13.0001 20.5774C11.6767 20.5774 10.6001 21.654 10.6001 22.9774C10.6001 24.3008 11.6767 25.3774 13.0001 25.3774ZM13.0001 22.1774C13.4415 22.1774 13.8001 22.5364 13.8001 22.9774C13.8001 23.4184 13.4415 23.7774 13.0001 23.7774C12.5587 23.7774 12.2001 23.4184 12.2001 22.9774C12.2001 22.5364 12.5587 22.1774 13.0001 22.1774ZM27.0001 25.3774C28.3235 25.3774 29.4001 24.3008 29.4001 22.9774C29.4001 21.654 28.3235 20.5774 27.0001 20.5774C25.6767 20.5774 24.6001 21.654 24.6001 22.9774C24.6001 24.3008 25.6767 25.3774 27.0001 25.3774ZM27.0001 22.1774C27.4415 22.1774 27.8001 22.5364 27.8001 22.9774C27.8001 23.4184 27.4415 23.7774 27.0001 23.7774C26.5587 23.7774 26.2001 23.4184 26.2001 22.9774C26.2001 22.5364 26.5587 22.1774 27.0001 22.1774Z" fill="#009DDB"/>
</g>
<defs>
<clipPath id="clip0_108_9020">
<rect width="40" height="40" fill="white"/>
</clipPath>
</defs>
</svg>
